<mxfile host="app.diagrams.net" modified="2023-07-22T09:51:16.014Z" agent="Mozilla/5.0 (Macintosh; Intel Mac OS X 10_15_7) AppleWebKit/537.36 (KHTML, like Gecko) Chrome/114.0.0.0 Safari/537.36" etag="f82ZTWMqCjt7KOge44w5" version="21.6.5" type="github">
  <diagram name="Page-1" id="30S2MZSsXb7g4wmxqVL5">
    <mxGraphModel dx="1368" dy="924" grid="1" gridSize="10" guides="1" tooltips="1" connect="1" arrows="1" fold="1" page="1" pageScale="1" pageWidth="1100" pageHeight="850" math="0" shadow="0">
      <root>
        <mxCell id="0" />
        <mxCell id="1" parent="0" />
        <mxCell id="NzXWzohtURT9lQF2q2ax-15" value="" style="group" vertex="1" connectable="0" parent="1">
          <mxGeometry x="400" y="30" width="320" height="758" as="geometry" />
        </mxCell>
        <mxCell id="NzXWzohtURT9lQF2q2ax-2" value="&lt;b&gt;&lt;font style=&quot;font-size: 20px;&quot;&gt;Magento for PIM&lt;/font&gt;&lt;/b&gt;" style="rounded=0;whiteSpace=wrap;html=1;" vertex="1" parent="NzXWzohtURT9lQF2q2ax-15">
          <mxGeometry y="505.33333333333337" width="320" height="84.22222222222223" as="geometry" />
        </mxCell>
        <mxCell id="NzXWzohtURT9lQF2q2ax-4" value="&lt;b&gt;&lt;font style=&quot;font-size: 20px;&quot;&gt;Elastc Search&lt;/font&gt;&lt;/b&gt;" style="rounded=0;whiteSpace=wrap;html=1;" vertex="1" parent="NzXWzohtURT9lQF2q2ax-15">
          <mxGeometry y="336.8888888888889" width="320" height="84.22222222222223" as="geometry" />
        </mxCell>
        <mxCell id="NzXWzohtURT9lQF2q2ax-11" value="" style="edgeStyle=orthogonalEdgeStyle;rounded=0;orthogonalLoop=1;jettySize=auto;html=1;startArrow=classic;startFill=1;" edge="1" parent="NzXWzohtURT9lQF2q2ax-15" source="NzXWzohtURT9lQF2q2ax-2" target="NzXWzohtURT9lQF2q2ax-4">
          <mxGeometry relative="1" as="geometry" />
        </mxCell>
        <mxCell id="NzXWzohtURT9lQF2q2ax-5" value="&lt;font style=&quot;font-size: 20px;&quot;&gt;&lt;b&gt;BFF &lt;/b&gt;&lt;br&gt;(backend for frontend)&lt;/font&gt;" style="rounded=0;whiteSpace=wrap;html=1;" vertex="1" parent="NzXWzohtURT9lQF2q2ax-15">
          <mxGeometry y="168.44444444444446" width="320" height="84.22222222222223" as="geometry" />
        </mxCell>
        <mxCell id="NzXWzohtURT9lQF2q2ax-10" value="" style="edgeStyle=orthogonalEdgeStyle;rounded=0;orthogonalLoop=1;jettySize=auto;html=1;startArrow=classic;startFill=1;" edge="1" parent="NzXWzohtURT9lQF2q2ax-15" source="NzXWzohtURT9lQF2q2ax-4" target="NzXWzohtURT9lQF2q2ax-5">
          <mxGeometry relative="1" as="geometry" />
        </mxCell>
        <mxCell id="NzXWzohtURT9lQF2q2ax-8" value="&lt;b&gt;&lt;font style=&quot;font-size: 20px;&quot;&gt;Front End&lt;/font&gt;&lt;/b&gt;" style="rounded=0;whiteSpace=wrap;html=1;" vertex="1" parent="NzXWzohtURT9lQF2q2ax-15">
          <mxGeometry width="320" height="84.22222222222223" as="geometry" />
        </mxCell>
        <mxCell id="NzXWzohtURT9lQF2q2ax-9" value="" style="edgeStyle=orthogonalEdgeStyle;rounded=0;orthogonalLoop=1;jettySize=auto;html=1;startArrow=classic;startFill=1;" edge="1" parent="NzXWzohtURT9lQF2q2ax-15" source="NzXWzohtURT9lQF2q2ax-5" target="NzXWzohtURT9lQF2q2ax-8">
          <mxGeometry relative="1" as="geometry" />
        </mxCell>
        <mxCell id="NzXWzohtURT9lQF2q2ax-14" value="" style="edgeStyle=orthogonalEdgeStyle;rounded=0;orthogonalLoop=1;jettySize=auto;html=1;startArrow=classic;startFill=1;" edge="1" parent="NzXWzohtURT9lQF2q2ax-15" source="NzXWzohtURT9lQF2q2ax-13" target="NzXWzohtURT9lQF2q2ax-2">
          <mxGeometry relative="1" as="geometry" />
        </mxCell>
        <mxCell id="NzXWzohtURT9lQF2q2ax-13" value="&lt;b&gt;&lt;font style=&quot;font-size: 20px;&quot;&gt;Pimcore for MDM&lt;/font&gt;&lt;/b&gt;" style="rounded=0;whiteSpace=wrap;html=1;" vertex="1" parent="NzXWzohtURT9lQF2q2ax-15">
          <mxGeometry y="673.7777777777778" width="320" height="84.22222222222223" as="geometry" />
        </mxCell>
      </root>
    </mxGraphModel>
  </diagram>
</mxfile>
